<svg xmlns="http://www.w3.org/2000/svg" id="icon__search" width="14.03" height="14" viewBox="0 0 14.03 14">
  <metadata><?xpacket begin="﻿" id="W5M0MpCehiHzreSzNTczkc9d"?>
<x:xmpmeta xmlns:x="adobe:ns:meta/" x:xmptk="Adobe XMP Core 5.6-c142 79.160924, 2017/07/13-01:06:39        ">
   <rdf:RDF xmlns:rdf="http://www.w3.org/1999/02/22-rdf-syntax-ns#">
      <rdf:Description rdf:about=""/>
   </rdf:RDF>
</x:xmpmeta>
                                                                                                    
                                                                                                    
                                                                                                    
                                                                                                    
                                                                                                    
                                                                                                    
                                                                                                    
                                                                                                    
                                                                                                    
                                                                                                    
                                                                                                    
                                                                                                    
                                                                                                    
                                                                                                    
                                                                                                    
                                                                                                    
                                                                                                    
                                                                                                    
                                                                                                    
                                                                                                    
                           
<?xpacket end="w"?></metadata>
<defs>
    <style>
      .cls-1 {
        fill-rule: evenodd;
      }
    </style>
  </defs>
  <path class="cls-1" d="M3424.12,170.735a5.941,5.941,0,1,0,1.73,4.191A5.891,5.891,0,0,0,3424.12,170.735Zm-4.19,8.987a4.8,4.8,0,1,1,4.79-4.8A4.8,4.8,0,0,1,3419.93,179.722Zm7.9,2.311-3.71-3.718a0.567,0.567,0,0,0-.8,0,0.55,0.55,0,0,0,0,.8l3.71,3.718a0.569,0.569,0,0,0,.4.166,0.553,0.553,0,0,0,.4-0.166A0.567,0.567,0,0,0,3427.83,182.033Z" transform="translate(-3414 -169)"/>
</svg>
