<svg xmlns="http://www.w3.org/2000/svg" width="13" height="13" viewBox="0 0 13 13">
  <metadata><?xpacket begin="﻿" id="W5M0MpCehiHzreSzNTczkc9d"?>
<x:xmpmeta xmlns:x="adobe:ns:meta/" x:xmptk="Adobe XMP Core 5.6-c142 79.160924, 2017/07/13-01:06:39        ">
   <rdf:RDF xmlns:rdf="http://www.w3.org/1999/02/22-rdf-syntax-ns#">
      <rdf:Description rdf:about=""/>
   </rdf:RDF>
</x:xmpmeta>
                                                                                                    
                                                                                                    
                                                                                                    
                                                                                                    
                                                                                                    
                                                                                                    
                                                                                                    
                                                                                                    
                                                                                                    
                                                                                                    
                                                                                                    
                                                                                                    
                                                                                                    
                                                                                                    
                                                                                                    
                                                                                                    
                                                                                                    
                                                                                                    
                                                                                                    
                                                                                                    
                           
<?xpacket end="w"?></metadata>
<defs>
    <style>
      .cls-1 {
        fill: #fff;
        fill-rule: evenodd;
      }
    </style>
  </defs>
  <path id="Forma_1" data-name="Forma 1" class="cls-1" d="M1515.37,696.308l-0.66.625a1.062,1.062,0,0,0-.32.759,1.017,1.017,0,0,0,.32.751l2.58,2.454h-6.17a1.109,1.109,0,0,0-.79.317,1,1,0,0,0-.33.75v1.068a1,1,0,0,0,.33.751,1.11,1.11,0,0,0,.79.318h6.17l-2.58,2.453a1.015,1.015,0,0,0-.32.751,1.062,1.062,0,0,0,.32.759l0.66,0.618a1.118,1.118,0,0,0,.8.316,1.063,1.063,0,0,0,.79-0.316l5.72-5.432a1.018,1.018,0,0,0,.32-0.751,1.063,1.063,0,0,0-.32-0.76l-5.72-5.431a1.106,1.106,0,0,0-.79-0.309A1.164,1.164,0,0,0,1515.37,696.308Z" transform="translate(-1510 -696)"/>
</svg>
