<svg xmlns="http://www.w3.org/2000/svg" width="11" height="11" viewBox="0 0 11 11">
  <metadata><?xpacket begin="﻿" id="W5M0MpCehiHzreSzNTczkc9d"?>
<x:xmpmeta xmlns:x="adobe:ns:meta/" x:xmptk="Adobe XMP Core 5.6-c142 79.160924, 2017/07/13-01:06:39        ">
   <rdf:RDF xmlns:rdf="http://www.w3.org/1999/02/22-rdf-syntax-ns#">
      <rdf:Description rdf:about=""/>
   </rdf:RDF>
</x:xmpmeta>
                                                                                                    
                                                                                                    
                                                                                                    
                                                                                                    
                                                                                                    
                                                                                                    
                                                                                                    
                                                                                                    
                                                                                                    
                                                                                                    
                                                                                                    
                                                                                                    
                                                                                                    
                                                                                                    
                                                                                                    
                                                                                                    
                                                                                                    
                                                                                                    
                                                                                                    
                                                                                                    
                           
<?xpacket end="w"?></metadata>
<defs>
    <style>
      .cls-1 {
        fill: #fff;
        fill-rule: evenodd;
        opacity: 0.4;
      }
    </style>
  </defs>
  <path id="Forma_1" data-name="Forma 1" class="cls-1" d="M3401.08,240.675a0.243,0.243,0,0,1,0-.351l3.77-3.768a0.487,0.487,0,0,0,0-.7l-0.7-.7a0.585,0.585,0,0,0-.36-0.15,0.454,0.454,0,0,0-.35.15l-3.76,3.768a0.253,0.253,0,0,1-.36,0l-3.76-3.768a0.5,0.5,0,0,0-.71,0l-0.7.7a0.487,0.487,0,0,0,0,.7l3.77,3.768a0.243,0.243,0,0,1,0,.351l-3.77,3.767a0.487,0.487,0,0,0,0,.7l0.7,0.7a0.493,0.493,0,0,0,.71,0l3.76-3.767a0.253,0.253,0,0,1,.36,0l3.76,3.767a0.537,0.537,0,0,0,.35.151,0.581,0.581,0,0,0,.36-0.151l0.7-.7a0.487,0.487,0,0,0,0-.7Z" transform="translate(-3394 -235)"/>
</svg>
